<svg fill="#773F9B" xmlns="http://www.w3.org/2000/svg" xmlns:xlink="http://www.w3.org/1999/xlink" version="1.1" x="0px" y="0px" viewBox="0 0 57 60" enable-background="new 0 0 57 60" xml:space="preserve"><g><path fill="#773F9B" d="M55.2,48.02c-0.55-0.1-1.07,0.24-1.18,0.78C52.9,54.3,48.57,58,43.25,58c-5.03,0-9.45-3.3-10.95-8H37v-2h-8   v8h2v-3.85C33.17,56.83,37.91,60,43.25,60c6.3,0,11.42-4.34,12.73-10.8C56.09,48.66,55.74,48.13,55.2,48.02z"></path><path fill="#773F9B" d="M55,36v4.31C52.75,35.85,48.3,33,43.25,33c-6.11,0-11.54,4-13.21,9.72c-0.15,0.53,0.15,1.08,0.68,1.24   c0.53,0.15,1.08-0.15,1.24-0.68c1.4-4.8,6.15-8.28,11.29-8.28c4.56,0,8.56,2.77,10.33,7H49v2h8v-8H55z"></path><path fill="#773F9B" d="M36,32h9V21h-9h-2h-7h-2h-7h-2H7v9v2v7v2v9h9h2h9v-9v-2v-7h7H36z M36,23h7v7h-7V23z M18,23h7v7h-7V23z    M9,23h7v7H9V23z M9,32h7v7H9V32z M16,48H9v-7h7V48z M25,48h-7v-7h7V48z M25,39h-7v-7h7V39z M27,30v-7h7v7H27z"></path><path fill="#773F9B" d="M24,55H2V16h48v13c0,0.55,0.45,1,1,1s1-0.45,1-1V15V5c0-0.55-0.45-1-1-1h-5V1c0-0.55-0.45-1-1-1h-7   c-0.55,0-1,0.45-1,1v3H15V1c0-0.55-0.45-1-1-1H7C6.45,0,6,0.45,6,1v3H1C0.45,4,0,4.45,0,5v10v41c0,0.55,0.45,1,1,1h23   c0.55,0,1-0.45,1-1S24.55,55,24,55z M39,2h5v3v3h-5V5V2z M8,2h5v3v3H8V5V2z M2,6h4v3c0,0.55,0.45,1,1,1h7c0.55,0,1-0.45,1-1V6h22v3   c0,0.55,0.45,1,1,1h7c0.55,0,1-0.45,1-1V6h4v8H2V6z"></path></g></svg>